<svg width="2468" height="1560" fill="none" xmlns="http://www.w3.org/2000/svg"><path fill-rule="evenodd" clip-rule="evenodd" d="M1344 455.518c0 82.833 24.36 142.161 114.73 180.482s177.69 3.352 265.28 23.4c87.59 20.048 87.59 149.195 170.08 228.671 82.48 79.476 256.4 98.781 397.82 18.15 141.41-80.632 205.52-268.896 163.26-379.902C2412.92 415.313 2331.94 314 1941.24 314 1550.53 314 1344 372.686 1344 455.518ZM250.649 1089.91c29.685 77.33 73.689 123.99 171.79 127.38 98.102 3.39 167.086-60.55 256.043-73.22 88.958-12.68 135.24 107.89 240.729 152.53s274.779.33 377.899-125.62c103.13-125.96 95.51-324.691 16.28-413.182-79.23-88.491-191.13-154.055-555.889-14.038-364.757 140.017-536.537 268.82-506.852 346.15ZM0 141.518C0 224.351 24.36 283.679 114.732 322c90.371 38.321 177.686 3.352 265.277 23.4 87.59 20.048 87.59 149.195 170.077 228.671 82.486 79.476 256.405 98.781 397.82 18.15 141.414-80.632 205.524-268.896 163.264-379.902C1068.92 101.313 987.943 0 597.236 0S0 58.685 0 141.518Z" fill="#4B3F6B"/></svg>